<svg width="402.51" height="71.681" viewBox="0 0 402.51 71.681" xmlns="http://www.w3.org/2000/svg"><g id="svgGroup" stroke-linecap="round" fill-rule="evenodd" font-size="9pt" stroke="#000" stroke-width="0.25mm" fill="#000" style="stroke:#000;stroke-width:0.25mm;fill:#000"><path d="M 145.606 70.704 L 135.596 70.704 A 1.299 1.299 0 0 1 135.301 70.673 Q 134.899 70.579 134.829 70.194 A 0.978 0.978 0 0 1 134.815 70.02 L 134.717 1.905 A 1.125 1.125 0 0 1 134.756 1.596 Q 134.855 1.249 135.209 1.157 A 1.151 1.151 0 0 1 135.498 1.124 L 144.531 1.124 L 161.426 40.528 L 160.938 1.905 A 0.992 0.992 0 0 1 160.986 1.582 Q 161.137 1.142 161.764 1.124 A 1.889 1.889 0 0 1 161.816 1.124 L 171.729 1.124 Q 172.238 1.124 172.305 1.715 A 1.709 1.709 0 0 1 172.315 1.905 L 172.412 70.118 A 1.027 1.027 0 0 1 172.391 70.335 Q 172.311 70.704 171.924 70.704 L 163.135 70.704 L 145.801 33.887 L 146.533 69.922 A 0.934 0.934 0 0 1 146.479 70.255 Q 146.309 70.704 145.606 70.704 Z M 226.318 51.514 L 226.514 1.514 Q 226.514 1.204 226.76 1.14 A 0.576 0.576 0 0 1 226.904 1.124 L 238.135 1.124 Q 238.445 1.124 238.509 1.37 A 0.576 0.576 0 0 1 238.525 1.514 L 238.525 51.514 A 8.764 8.764 0 0 0 239.123 54.789 A 8.125 8.125 0 0 0 240.674 57.252 A 7.332 7.332 0 0 0 242.892 58.951 A 6.774 6.774 0 0 0 245.898 59.62 A 7.164 7.164 0 0 0 249.102 58.912 A 7.227 7.227 0 0 0 251.27 57.252 A 8.216 8.216 0 0 0 253.417 51.619 A 10.496 10.496 0 0 0 253.418 51.514 L 253.418 1.514 Q 253.418 1.204 253.664 1.14 A 0.576 0.576 0 0 1 253.809 1.124 L 265.039 1.124 Q 265.349 1.124 265.413 1.37 A 0.576 0.576 0 0 1 265.43 1.514 L 265.625 51.514 A 20.198 20.198 0 0 1 262.988 61.671 Q 260.303 66.26 255.859 68.97 A 18.673 18.673 0 0 1 246.264 71.677 A 22.253 22.253 0 0 1 245.898 71.68 Q 240.625 71.68 236.133 68.946 A 20.373 20.373 0 0 1 228.98 61.597 A 19.829 19.829 0 0 1 226.318 51.514 Z M 98.242 70.704 L 86.914 70.704 Q 86.523 70.704 86.523 70.215 L 86.719 1.514 Q 86.719 1.204 86.965 1.14 A 0.576 0.576 0 0 1 87.109 1.124 L 107.324 1.124 A 19.484 19.484 0 0 1 117.285 3.76 Q 121.826 6.397 124.536 10.84 A 18.656 18.656 0 0 1 127.218 19.771 A 22.562 22.562 0 0 1 127.246 20.899 A 20.643 20.643 0 0 1 126.901 24.751 A 16.725 16.725 0 0 1 126.123 27.54 A 25.962 25.962 0 0 1 125.07 29.968 Q 124.439 31.235 123.718 32.276 A 15.615 15.615 0 0 1 123.511 32.569 A 25.514 25.514 0 0 1 122.606 33.746 Q 121.64 34.925 120.801 35.596 A 20.383 20.383 0 0 1 126.221 49.708 L 126.318 70.215 Q 126.318 70.603 126.011 70.683 A 0.719 0.719 0 0 1 125.83 70.704 L 114.502 70.704 A 0.765 0.765 0 0 1 114.361 70.692 Q 114.126 70.647 114.112 70.437 A 0.411 0.411 0 0 1 114.111 70.411 L 114.111 49.708 A 8.706 8.706 0 0 0 111.572 43.458 A 8.31 8.31 0 0 0 105.553 40.824 A 10.294 10.294 0 0 0 105.322 40.821 L 98.731 40.821 L 98.633 70.215 A 0.896 0.896 0 0 1 98.617 70.394 Q 98.554 70.704 98.242 70.704 Z M 388.672 70.704 L 377.197 70.704 A 0.425 0.425 0 0 1 377.054 70.682 Q 376.856 70.611 376.856 70.313 L 376.953 41.895 L 363.574 1.514 A 0.735 0.735 0 0 1 363.562 1.453 Q 363.508 1.124 363.867 1.124 L 375 1.124 Q 375.488 1.124 375.586 1.514 L 382.959 28.419 L 390.479 1.514 Q 390.566 1.165 390.887 1.128 A 0.695 0.695 0 0 1 390.967 1.124 L 402.197 1.124 A 0.567 0.567 0 0 1 402.315 1.135 Q 402.571 1.19 402.49 1.514 L 388.965 41.505 L 389.063 70.313 Q 389.063 70.623 388.817 70.687 A 0.576 0.576 0 0 1 388.672 70.704 Z M 25.195 70.704 L 13.916 70.704 A 0.564 0.564 0 0 1 13.734 70.677 Q 13.483 70.591 13.477 70.233 A 1.056 1.056 0 0 1 13.477 70.215 L 13.477 13.184 L 0.488 13.184 Q 0.101 13.184 0.021 12.877 A 0.719 0.719 0 0 1 0 12.696 L 0.098 1.514 Q 0.098 1.204 0.344 1.14 A 0.576 0.576 0 0 1 0.488 1.124 L 38.477 1.124 Q 38.999 1.124 39.013 1.494 A 0.546 0.546 0 0 1 39.014 1.514 L 39.014 12.696 A 0.896 0.896 0 0 1 38.998 12.874 Q 38.934 13.184 38.623 13.184 L 25.488 13.184 L 25.586 70.215 A 0.896 0.896 0 0 1 25.57 70.394 Q 25.507 70.704 25.195 70.704 Z M 199.414 70.704 L 181.494 70.704 Q 181.104 70.704 181.104 70.215 L 181.299 1.514 Q 181.299 1.204 181.545 1.14 A 0.576 0.576 0 0 1 181.69 1.124 L 200.928 1.124 Q 206.543 1.124 211.133 3.858 A 20.019 20.019 0 0 1 218.213 11.109 A 19.359 19.359 0 0 1 220.801 20.899 Q 220.801 25.196 218.848 28.907 Q 216.895 32.618 214.209 34.913 Q 217.09 37.794 218.701 41.602 A 20.343 20.343 0 0 1 220.313 49.61 Q 220.313 55.421 217.529 60.206 Q 214.697 64.991 209.961 67.847 A 20.027 20.027 0 0 1 199.414 70.704 Z M 291.895 70.606 L 273.975 70.704 Q 273.587 70.704 273.507 70.396 A 0.719 0.719 0 0 1 273.486 70.215 L 273.682 1.514 Q 273.682 1.204 273.928 1.14 A 0.576 0.576 0 0 1 274.072 1.124 L 292.773 1.026 Q 297.185 0.91 300.922 2.573 A 17.909 17.909 0 0 1 302.832 3.565 Q 307.373 6.251 310.083 10.816 A 19.386 19.386 0 0 1 312.793 20.899 L 312.793 49.61 A 20.599 20.599 0 0 1 310.01 60.157 A 21.535 21.535 0 0 1 302.49 67.701 A 20.546 20.546 0 0 1 293.353 70.539 A 24.675 24.675 0 0 1 291.895 70.606 Z M 339.063 70.606 L 321.143 70.704 Q 320.755 70.704 320.675 70.396 A 0.719 0.719 0 0 1 320.654 70.215 L 320.85 1.514 Q 320.85 1.204 321.096 1.14 A 0.576 0.576 0 0 1 321.24 1.124 L 339.941 1.026 Q 344.353 0.91 348.09 2.573 A 17.909 17.909 0 0 1 350 3.565 Q 354.541 6.251 357.251 10.816 A 19.386 19.386 0 0 1 359.961 20.899 L 359.961 49.61 A 20.599 20.599 0 0 1 357.178 60.157 A 21.535 21.535 0 0 1 349.658 67.701 A 20.546 20.546 0 0 1 340.521 70.539 A 24.675 24.675 0 0 1 339.063 70.606 Z M 39.697 51.612 L 39.795 19.922 A 19.775 19.775 0 0 1 40.924 13.176 A 18.23 18.23 0 0 1 42.481 9.913 A 20.281 20.281 0 0 1 49.609 2.711 A 18.563 18.563 0 0 1 59.375 0.001 A 19.076 19.076 0 0 1 65.921 1.103 A 17.616 17.616 0 0 1 69.19 2.686 A 20.487 20.487 0 0 1 76.245 9.888 A 19.389 19.389 0 0 1 78.906 19.879 A 22.972 22.972 0 0 1 78.906 19.922 L 79.004 51.612 A 19.575 19.575 0 0 1 76.367 61.622 A 20.772 20.772 0 0 1 69.238 68.946 Q 64.795 71.68 59.375 71.68 Q 54.053 71.68 49.561 68.946 A 21.043 21.043 0 0 1 42.407 61.646 Q 39.697 57.081 39.697 51.612 Z M 292.773 12.989 L 285.791 13.087 L 285.693 58.399 L 291.895 58.399 A 8.752 8.752 0 0 0 295.603 57.625 A 8.588 8.588 0 0 0 298.145 55.811 A 8.539 8.539 0 0 0 300.684 49.638 A 10.252 10.252 0 0 0 300.684 49.61 L 300.684 20.801 Q 300.684 17.628 298.34 15.259 A 7.732 7.732 0 0 0 295.886 13.554 Q 294.558 12.985 293.027 12.985 A 8.382 8.382 0 0 0 292.773 12.989 Z M 339.941 12.989 L 332.959 13.087 L 332.861 58.399 L 339.063 58.399 A 8.752 8.752 0 0 0 342.771 57.625 A 8.588 8.588 0 0 0 345.313 55.811 A 8.539 8.539 0 0 0 347.852 49.638 A 10.252 10.252 0 0 0 347.852 49.61 L 347.852 20.801 Q 347.852 17.628 345.508 15.259 A 7.732 7.732 0 0 0 343.054 13.554 Q 341.726 12.985 340.195 12.985 A 8.382 8.382 0 0 0 339.941 12.989 Z M 66.895 51.612 L 66.797 19.922 A 8.685 8.685 0 0 0 66.274 16.864 A 7.803 7.803 0 0 0 64.697 14.307 A 6.853 6.853 0 0 0 59.699 12.018 A 8.818 8.818 0 0 0 59.375 12.012 A 7.096 7.096 0 0 0 54.205 14.154 A 8.881 8.881 0 0 0 54.102 14.258 Q 51.904 16.505 51.904 19.922 L 51.904 51.612 Q 51.904 54.883 54.102 57.252 A 7.554 7.554 0 0 0 56.35 58.949 A 6.861 6.861 0 0 0 59.375 59.62 A 6.75 6.75 0 0 0 64.111 57.698 A 9.303 9.303 0 0 0 64.648 57.154 A 8.885 8.885 0 0 0 66.261 54.708 A 7.699 7.699 0 0 0 66.895 51.612 Z M 199.414 40.821 L 193.311 40.821 L 193.213 58.497 L 199.414 58.497 A 8.36 8.36 0 0 0 205.493 55.982 A 10.471 10.471 0 0 0 205.615 55.86 A 8.895 8.895 0 0 0 207.743 52.485 A 8.846 8.846 0 0 0 208.203 49.61 A 8.446 8.446 0 0 0 205.696 43.49 A 10.413 10.413 0 0 0 205.615 43.409 Q 203.027 40.821 199.414 40.821 Z M 107.324 13.087 L 98.731 13.087 L 98.731 28.809 L 107.324 28.809 Q 110.4 28.809 112.817 26.514 A 7.427 7.427 0 0 0 115.231 21.131 A 8.978 8.978 0 0 0 115.234 20.899 Q 115.234 17.725 112.891 15.406 Q 110.547 13.087 107.324 13.087 Z M 200.928 12.989 L 193.311 12.989 L 193.311 28.712 L 200.928 28.712 A 7.901 7.901 0 0 0 203.698 28.244 A 6.944 6.944 0 0 0 206.543 26.246 A 9.298 9.298 0 0 0 208.002 24.029 A 7.408 7.408 0 0 0 208.691 20.899 A 7.71 7.71 0 0 0 206.397 15.357 A 7.836 7.836 0 0 0 203.882 13.581 A 7.353 7.353 0 0 0 200.928 12.989 Z" vector-effect="non-scaling-stroke"/></g></svg>
